# xmcd
#
# Track frame offsets:
#	150
#	27895
#	49539
#	71139
#	94192
#	117683
#	144055
#	167004
#	193909
#	212513
#	236672
#	258441
#	284640
#	310841
#
# Disc length: 4519 seconds
#
# Revision: 65538
# Processed by: cddbd v1.5.2PL0 Copyright (c) Steve Scherf et al.
# Submitted via: EZCDAudioConverter 8.0.2.1
#
DISCID=cf11a50e
DTITLE=Duy Trường - Người Yêu Cô Đơn
DYEAR=2009
DGENRE=Miscellaneous
TTITLE0=Duy Trường - Người Yêu Cô Đơn
TTITLE1=Duy Trường - Tiễn một người đi
TTITLE2=Duy Trường, Quỳnh Dung - Quên nhau trên đường về
TTITLE3=Duy Trường, Hương Thủy - Sài Gòn em nhớ ai
TTITLE4=Duy Trường - Lý con sáo Bạc Liêu
TTITLE5=Duy Trường - Tôi không còn thương nhớ người yêu
TTITLE6=Duy Trường, Mai Thiên Vân - Đừng nhắc chuyện lòng
TTITLE7=Duy Trường - Về miền Tây
TTITLE8=Duy Trường - Nhớ về em
TTITLE9=Duy Trường, Quỳnh Dung - Mất nhau rồi
TTITLE10=Duy Trường - Xót xa
TTITLE11=Duy Trường - Tiền Giang quê tôi
TTITLE12=Duy Trường - Nội tôi
TTITLE13=Duy Trường - Vọng cổ. Tình nội
EXTD=
EXTT0=
EXTT1=
EXTT2=
EXTT3=
EXTT4=
EXTT5=
EXTT6=
EXTT7=
EXTT8=
EXTT9=
EXTT10=
EXTT11=
EXTT12=
EXTT13=
PLAYORDER=
